Coordinates
version=1
nRows=14
nColumns=40
inDegrees=yes

Units are S.I. units (second, meters, Newtons, ...)
Angles are in degrees.

endheader
time	pelvis_tilt	pelvis_list	pelvis_rotation	pelvis_tx	pelvis_ty	pelvis_tz	hip_flexion_r	hip_adduction_r	hip_rotation_r	knee_angle_r	knee_angle_r_beta	ankle_angle_r	subtalar_angle_r	mtp_angle_r	hip_flexion_l	hip_adduction_l	hip_rotation_l	knee_angle_l	knee_angle_l_beta	ankle_angle_l	subtalar_angle_l	mtp_angle_l	lumbar_extension	lumbar_bending	lumbar_rotation	arm_flex_r	arm_add_r	arm_rot_r	elbow_flex_r	pro_sup_r	wrist_flex_r	wrist_dev_r	arm_flex_l	arm_add_l	arm_rot_l	elbow_flex_l	pro_sup_l	wrist_flex_l	wrist_dev_l
     31.49778571	     -5.18301060	     -1.77255962	     -5.23058799	      0.73975075	      0.92387417	      0.43735169	     26.49419332	     -1.93065995	    -13.80048795	      8.75743811	      8.75743811	      1.05900282	      5.36135788	      6.34573825	      0.14822253	     -1.95125814	    -13.47427223	     11.95991450	     11.95991450	     18.49672691	     -4.74495723	      0.46110813	    -10.80607790	      1.90631355	      2.68663326	     -9.40452826	    -15.41397332	    -18.00566625	     24.16629377	     47.71030018	      0.00000000	      0.00000000	     10.24712929	    -17.74985808	    -28.72638678	    128.87743364	     49.96745491	      0.00000000	      0.00000000
     31.51057143	     -5.28174746	     -1.85135850	     -5.04049262	      0.74186415	      0.92211213	      0.43880636	     26.21135816	     -1.69019734	    -14.47394295	      8.29637335	      8.29637335	      0.77272513	      6.27260901	      6.21971427	     -0.36035196	     -2.14512136	    -13.46871846	     11.95588447	     11.95588447	     18.87091135	     -4.38118741	     -0.05607840	    -10.53021259	      2.08944473	      2.60106547	     -9.71271965	    -15.18858992	    -18.24530767	     24.21636743	     47.70456387	      0.00000000	      0.00000000	     10.05215668	    -17.50782542	    -28.39391116	    128.59765415	     49.96087521	      0.00000000	      0.00000000
     31.52335714	     -5.41432642	     -2.00211006	     -4.81500914	      0.74399949	      0.92040499	      0.44035116	     26.11377760	     -1.42627865	    -14.69780266	      8.50418613	      8.50418613	      0.47102579	      6.27742721	      6.03343824	     -0.80345821	     -2.41670812	    -13.23685682	     12.00516831	     12.00516831	     19.25993171	     -4.30929985	     -0.27077641	    -10.23247756	      2.36569125	      2.41197029	     -9.78819194	    -14.97132040	    -18.27346544	     24.22064897	     47.70090910	      0.00000000	      0.00000000	      9.63880639	    -17.09928449	    -28.16993632	    128.31526636	     49.94023445	      0.00000000	      0.00000000
     31.53614286	     -5.51415518	     -2.19571179	     -4.59340245	      0.74620516	      0.91892165	      0.44205908	     25.96733642	     -1.15154318	    -14.85740339	      8.96775157	      8.96775157	      0.05094418	      6.20051953	      5.84504895	     -1.26588586	     -2.74922635	    -12.99278607	     12.09700036	     12.09700036	     19.67811790	     -4.28085115	     -0.47302295	    -10.01021318	      2.64056870	      2.23654799	     -9.73406293	    -14.72528667	    -18.26853821	     24.25718180	     47.69607203	      0.00000000	      0.00000000	      9.21615399	    -16.72259049	    -27.95671948	    127.96472078	     49.91647835	      0.00000000	      0.00000000
     31.54892857	     -5.57534180	     -2.41676430	     -4.27428914	      0.74865332	      0.91717926	      0.44390415	     25.92946292	     -0.92285401	    -14.83449303	      9.81416967	      9.81416967	     -2.26511276	      5.04193460	     -1.04778265	     -1.45792106	     -3.32640542	    -13.30033681	     12.83954438	     12.83954438	     20.02674321	     -3.50271658	     -1.50956533	     -9.63578693	      3.07111314	      2.29233705	     -9.85308643	    -14.53743082	    -18.66839647	     24.49006677	     47.64779966	      0.00000000	      0.00000000	      8.73807577	    -16.27426985	    -26.73127679	    125.69461961	     49.85779443	      0.00000000	      0.00000000
     31.56171429	     -5.65711147	     -2.63311281	     -3.98781459	      0.75101839	      0.91596948	      0.44582469	     26.12281703	     -0.78134970	    -14.74484635	     11.30443138	     11.30443138	     -2.41296644	      4.23635284	     -1.80724637	     -1.74634965	     -3.76947285	    -12.94779639	     13.29366136	     13.29366136	     20.36039624	     -3.61525219	     -1.68317992	     -9.37471506	      3.43129066	      1.86321860	     -9.40376078	    -14.32948807	    -18.67970901	     24.76056709	     47.62765621	      0.00000000	      0.00000000	      7.71144992	    -15.90610817	    -26.40794748	    124.39504206	     49.81287828	      0.00000000	      0.00000000
     31.57450000	     -5.68614846	     -2.85992985	     -3.68315151	      0.75343459	      0.91506540	      0.44791345	     26.28880816	     -0.63471124	    -14.53838639	     12.88579787	     12.88579787	     -2.52541104	      3.12750740	     -2.75896551	     -1.96734222	     -4.28940036	    -12.71279456	     13.97963627	     13.97963627	     20.64441039	     -3.62391810	     -1.92337715	     -9.16516232	      3.79376794	      1.47643516	     -8.88670305	    -14.12639370	    -18.60714434	     25.00585752	     47.59927288	      0.00000000	      0.00000000	      6.77528611	    -15.46140030	    -25.96304648	    122.58779438	     49.75106116	      0.00000000	      0.00000000
     31.58728571	     -5.66315349	     -3.07138438	     -3.39971872	      0.75590333	      0.91455524	      0.45017619	     26.40936338	     -0.50347049	    -14.29264614	     14.49526968	     14.49526968	     -2.37725601	      2.07059433	     -3.45470337	     -2.16435457	     -4.82508686	    -12.51871178	     14.80527761	     14.80527761	     20.81259009	     -3.67374646	     -2.16875461	     -9.03487751	      4.12967239	      1.06980119	     -8.24119390	    -13.91507565	    -18.48634422	     25.31850860	     47.56876120	      0.00000000	      0.00000000	      5.71793380	    -15.01697968	    -25.41782843	    120.49884485	     49.67144913	      0.00000000	      0.00000000
     31.60007143	     -5.38838196	     -3.33710253	     -3.13211688	      0.75860260	      0.91492328	      0.45263279	     25.99003065	     -0.28210315	    -14.24070034	     15.62763544	     15.62763544	     -2.03845682	      1.52109491	     -3.79281931	     -2.67974995	     -5.39583669	    -12.28662444	     15.54933724	     15.54933724	     20.79879527	     -3.84697849	     -2.29513626	     -9.28460910	      4.44207568	      0.82524516	     -7.50238934	    -13.56212832	    -18.38422907	     25.63631669	     47.54812936	      0.00000000	      0.00000000	      4.62874324	    -14.12060776	    -24.82280655	    119.16187536	     49.59706382	      0.00000000	      0.00000000
     31.61285714	     -5.58451042	     -3.38519592	     -2.81605339	      0.76073837	      0.91465860	      0.45510692	     26.43861222	     -0.28721827	    -13.78678444	     17.29261010	     17.29261010	     -1.43846214	      0.07423684	     -4.03849221	     -2.13941895	     -5.90884315	    -12.05751702	     17.19765325	     17.19765325	     20.74082634	     -4.09736653	     -2.82223644	     -8.83017142	      4.65295159	      0.11793076	     -6.59786772	    -13.50109817	    -18.12618881	     26.19349799	     47.49722729	      0.00000000	      0.00000000	      3.58114701	    -14.25766468	    -24.17955982	    115.10147536	     49.46915980	      0.00000000	      0.00000000
     31.62564286	     -5.53696109	     -3.53726684	     -2.53111653	      0.76302931	      0.91536411	      0.45777379	     26.23652984	     -0.09794378	    -13.48369696	     18.23971902	     18.23971902	     -0.70775476	     -0.83078062	     -3.71199014	     -1.87434197	     -6.50911814	    -11.78986564	     18.80785995	     18.80785995	     20.34512907	     -4.54865039	     -3.40700234	     -8.76948787	      4.92484148	     -0.02445937	     -5.92869951	    -13.37871593	    -17.65605559	     26.84378381	     47.41644620	      0.00000000	      0.00000000	      3.03239644	    -13.75933728	    -23.08585244	    111.22469992	     49.32210694	      0.00000000	      0.00000000
     31.63842857	     -5.39063742	     -3.60986015	     -2.28718694	      0.76531536	      0.91658160	      0.46048047	     25.83225746	      0.00821557	    -13.36476511	     19.01728359	     19.01728359	      0.42248753	     -1.20483309	     -2.50947067	     -1.64168945	     -6.97779740	    -11.38410616	     20.47156059	     20.47156059	     19.41795719	     -5.54344802	     -4.53717856	     -8.80505608	      5.09897078	      0.51936861	     -5.95299524	    -13.30214767	    -16.60169339	     28.33118627	     47.22049998	      0.00000000	      0.00000000	      3.19204578	    -13.23668123	    -21.12320976	    106.60168605	     49.12315913	      0.00000000	      0.00000000
     31.65121429	     -5.30651304	     -3.64088359	     -1.98887041	      0.76737979	      0.91794682	      0.46312630	     25.34135329	      0.05916944	    -13.50824938	     19.46303989	     19.46303989	      1.42983438	     -1.28967089	     -1.78685728	     -1.05540072	     -7.40570121	    -10.75215998	     22.56247054	     22.56247054	     18.23538073	     -7.03130965	     -5.72173872	     -8.80111595	      5.21703002	      0.51477469	     -5.64234307	    -13.28534036	    -15.58497091	     30.22095771	     47.01829058	      0.00000000	      0.00000000	      2.94593591	    -12.96764061	    -19.75191726	    102.26624834	     48.96573420	      0.00000000	      0.00000000
     31.66400000	     -5.14366623	     -3.71264968	     -1.68931728	      0.76936102	      0.91958523	      0.46573155	     24.59647881	      0.18754881	    -13.69032114	     19.56913615	     19.56913615	      2.14309107	     -1.29587375	     -1.93893517	     -0.29377702	     -7.94548680	    -10.23218966	     25.13181332	     25.13181332	     17.25723056	     -8.10796493	     -6.03954292	     -9.01161712	      5.37421303	     -0.23283937	     -4.23002133	    -13.17162802	    -15.40808257	     31.16797131	     46.97033002	      0.00000000	      0.00000000	      1.81618185	    -12.56573756	    -18.97108224	     99.65423899	     48.85801460	      0.00000000	      0.00000000
